<svg xmlns="http://www.w3.org/2000/svg" viewBox="0 0 259.47 252.33"><defs><style>.cls-1{fill:#ffca20;}.cls-1,.cls-3,.cls-6,.cls-7{opacity:0.7;}.cls-1,.cls-2,.cls-3,.cls-4,.cls-5,.cls-6,.cls-7{isolation:isolate;}.cls-2{fill:#ffcf39;}.cls-2,.cls-4{opacity:0.9;}.cls-3{fill:#ffe490;}.cls-4{fill:#fcbc7c;}.cls-5,.cls-6{fill:#f9a040;}.cls-5{opacity:0.8;}.cls-7{fill:#ffc737;}</style></defs><title>flow</title><g id="Слой_2" data-name="Слой 2"><g id="Слой_1-2" data-name="Слой 1"><g id="svg_1" data-name="svg 1"><path id="svg_2" data-name="svg 2" class="cls-1" d="M224.74,109,140.63,24.9h84.11Z"/><path id="svg_3" data-name="svg 3" class="cls-1" d="M81.72,0H129.4l36.44,36.43H81.72Z"/><path id="svg_4" data-name="svg 4" class="cls-2" d="M84.45,84.12.34,0H101.47V84.11Zm90.91,84.09,84.11,84.11H175.36Z"/><path id="svg_5" data-name="svg 5" class="cls-3" d="M101.47,168.23,17.37,84.11h84.11v84.11Zm90.59-42.58L125,58.57h67.08Zm7.84,118.84-76.28-76.27H199.9Z"/><path id="svg_6" data-name="svg 6" class="cls-4" d="M101.47,67l-67-67h67Z"/><path id="svg_7" data-name="svg 7" class="cls-5" d="M123.95,168.22l84.11,84.11H123.95Z"/><path id="svg_8" data-name="svg 8" class="cls-6" d="M209.08,201.8l-84-84h84Z"/><path id="svg_9" data-name="svg 9" class="cls-2" d="M125,58.57l83.09,83.09H125Z"/><path id="svg_10" data-name="svg 10" class="cls-7" d="M101.47,252,0,150.51H101.47Z"/></g></g></g></svg>